<?xml version="1.0" encoding="UTF-8" standalone="no"?>
<!-- Created with Inkscape (http://www.inkscape.org/) -->

<svg
   version="1.1"
   id="svg1"
   width="800"
   height="666.66669"
   viewBox="0 0 800 666.66669"
   sodipodi:docname="8893918.eps"
   xmlns:inkscape="http://www.inkscape.org/namespaces/inkscape"
   xmlns:sodipodi="http://sodipodi.sourceforge.net/DTD/sodipodi-0.dtd"
   xmlns="http://www.w3.org/2000/svg"
   xmlns:svg="http://www.w3.org/2000/svg">
  <defs
     id="defs1">
    <clipPath
       clipPathUnits="userSpaceOnUse"
       id="clipPath36">
      <path
         d="m 2274.36,1076.1 -294.99,-71.65 c -82.06,273.99 -211.83,642.2 -178.12,761.83 -6.08,12.25 -77.18,113.84 -173.33,256.68 -9.67,-118.99 -10.77,-140.73 -18.69,-231.53 -8.94,-102.51 -297.75,-813.782 -297.75,-813.782 l -264.69,75.892 c 58.2,237.52 168.81,717.62 214.68,759.9 l -59.5,397.58 c 0,0 -52.58,107.66 -63.54,184.38 -11.61,81.23 -7.65,142.2 -0.92,182.54 6.53,39.32 15.74,59.12 15.74,59.12 l 632.34,74.97 c 0,0 1.39,-3.31 4.06,-9.58 35.91,-85.46 301.71,-717.99 328.69,-810.82 28.92,-99.56 156.02,-815.53 156.02,-815.53"
         transform="translate(0,2.5e-5)"
         id="path36" />
    </clipPath>
    <clipPath
       clipPathUnits="userSpaceOnUse"
       id="clipPath38">
      <path
         d="m 2274.36,1076.1 -294.99,-71.65 c -82.06,273.99 -211.83,642.2 -178.12,761.83 -6.08,12.25 -77.18,113.84 -173.33,256.68 -9.67,-118.99 -10.77,-140.73 -18.69,-231.53 -8.94,-102.51 -297.75,-813.782 -297.75,-813.782 l -264.69,75.892 c 58.2,237.52 168.81,717.62 214.68,759.9 l -59.5,397.58 c 0,0 -52.58,107.66 -63.54,184.38 -11.61,81.23 -7.65,142.2 -0.92,182.54 6.53,39.32 15.74,59.12 15.74,59.12 l 632.34,74.97 c 0,0 1.39,-3.31 4.06,-9.58 35.91,-85.46 301.71,-717.99 328.69,-810.82 28.92,-99.56 156.02,-815.53 156.02,-815.53"
         transform="translate(0,2.5e-5)"
         id="path38" />
    </clipPath>
    <clipPath
       clipPathUnits="userSpaceOnUse"
       id="clipPath40">
      <path
         d="m 2274.36,1076.1 -294.99,-71.65 c -82.06,273.99 -211.83,642.2 -178.12,761.83 -6.08,12.25 -77.18,113.84 -173.33,256.68 -9.67,-118.99 -10.77,-140.73 -18.69,-231.53 -8.94,-102.51 -297.75,-813.782 -297.75,-813.782 l -264.69,75.892 c 58.2,237.52 168.81,717.62 214.68,759.9 l -59.5,397.58 c 0,0 -52.58,107.66 -63.54,184.38 -11.61,81.23 -7.65,142.2 -0.92,182.54 6.53,39.32 15.74,59.12 15.74,59.12 l 632.34,74.97 c 0,0 1.39,-3.31 4.06,-9.58 35.91,-85.46 301.71,-717.99 328.69,-810.82 28.92,-99.56 156.02,-815.53 156.02,-815.53"
         transform="translate(0,2.5e-5)"
         id="path40" />
    </clipPath>
    <clipPath
       clipPathUnits="userSpaceOnUse"
       id="clipPath42">
      <path
         d="m 2274.36,1076.1 -294.99,-71.65 c -82.06,273.99 -211.83,642.2 -178.12,761.83 -6.08,12.25 -77.18,113.84 -173.33,256.68 -9.67,-118.99 -10.77,-140.73 -18.69,-231.53 -8.94,-102.51 -297.75,-813.782 -297.75,-813.782 l -264.69,75.892 c 58.2,237.52 168.81,717.62 214.68,759.9 l -59.5,397.58 c 0,0 -52.58,107.66 -63.54,184.38 -11.61,81.23 -7.65,142.2 -0.92,182.54 6.53,39.32 15.74,59.12 15.74,59.12 l 632.34,74.97 c 0,0 1.39,-3.31 4.06,-9.58 35.91,-85.46 301.71,-717.99 328.69,-810.82 28.92,-99.56 156.02,-815.53 156.02,-815.53"
         transform="translate(0,2.5e-5)"
         id="path42" />
    </clipPath>
    <clipPath
       clipPathUnits="userSpaceOnUse"
       id="clipPath44">
      <path
         d="m 2274.36,1076.1 -294.99,-71.65 c -82.06,273.99 -211.83,642.2 -178.12,761.83 -6.08,12.25 -77.18,113.84 -173.33,256.68 -9.67,-118.99 -10.77,-140.73 -18.69,-231.53 -8.94,-102.51 -297.75,-813.782 -297.75,-813.782 l -264.69,75.892 c 58.2,237.52 168.81,717.62 214.68,759.9 l -59.5,397.58 c 0,0 -52.58,107.66 -63.54,184.38 -11.61,81.23 -7.65,142.2 -0.92,182.54 6.53,39.32 15.74,59.12 15.74,59.12 l 632.34,74.97 c 0,0 1.39,-3.31 4.06,-9.58 35.91,-85.46 301.71,-717.99 328.69,-810.82 28.92,-99.56 156.02,-815.53 156.02,-815.53"
         transform="translate(0,2.5e-5)"
         id="path44" />
    </clipPath>
    <clipPath
       clipPathUnits="userSpaceOnUse"
       id="clipPath46">
      <path
         d="m 2274.36,1076.1 -294.99,-71.65 c -82.06,273.99 -211.83,642.2 -178.12,761.83 -6.08,12.25 -77.18,113.84 -173.33,256.68 -9.67,-118.99 -10.77,-140.73 -18.69,-231.53 -8.94,-102.51 -297.75,-813.782 -297.75,-813.782 l -264.69,75.892 c 58.2,237.52 168.81,717.62 214.68,759.9 l -59.5,397.58 c 0,0 -52.58,107.66 -63.54,184.38 -11.61,81.23 -7.65,142.2 -0.92,182.54 6.53,39.32 15.74,59.12 15.74,59.12 l 632.34,74.97 c 0,0 1.39,-3.31 4.06,-9.58 35.91,-85.46 301.71,-717.99 328.69,-810.82 28.92,-99.56 156.02,-815.53 156.02,-815.53"
         transform="translate(0,2.5e-5)"
         id="path46" />
    </clipPath>
    <clipPath
       clipPathUnits="userSpaceOnUse"
       id="clipPath48">
      <path
         d="m 2274.36,1076.1 -294.99,-71.65 c -82.06,273.99 -211.83,642.2 -178.12,761.83 -6.08,12.25 -77.18,113.84 -173.33,256.68 -9.67,-118.99 -10.77,-140.73 -18.69,-231.53 -8.94,-102.51 -297.75,-813.782 -297.75,-813.782 l -264.69,75.892 c 58.2,237.52 168.81,717.62 214.68,759.9 l -59.5,397.58 c 0,0 -52.58,107.66 -63.54,184.38 -11.61,81.23 -7.65,142.2 -0.92,182.54 6.53,39.32 15.74,59.12 15.74,59.12 l 632.34,74.97 c 0,0 1.39,-3.31 4.06,-9.58 35.91,-85.46 301.71,-717.99 328.69,-810.82 28.92,-99.56 156.02,-815.53 156.02,-815.53"
         transform="translate(0,2.5e-5)"
         id="path48" />
    </clipPath>
    <clipPath
       clipPathUnits="userSpaceOnUse"
       id="clipPath50">
      <path
         d="m 2274.36,1076.1 -294.99,-71.65 c -82.06,273.99 -211.83,642.2 -178.12,761.83 -6.08,12.25 -77.18,113.84 -173.33,256.68 -9.67,-118.99 -10.77,-140.73 -18.69,-231.53 -8.94,-102.51 -297.75,-813.782 -297.75,-813.782 l -264.69,75.892 c 58.2,237.52 168.81,717.62 214.68,759.9 l -59.5,397.58 c 0,0 -52.58,107.66 -63.54,184.38 -11.61,81.23 -7.65,142.2 -0.92,182.54 6.53,39.32 15.74,59.12 15.74,59.12 l 632.34,74.97 c 0,0 1.39,-3.31 4.06,-9.58 35.91,-85.46 301.71,-717.99 328.69,-810.82 28.92,-99.56 156.02,-815.53 156.02,-815.53"
         transform="translate(0,2.5e-5)"
         id="path50" />
    </clipPath>
    <clipPath
       clipPathUnits="userSpaceOnUse"
       id="clipPath52">
      <path
         d="m 2274.36,1076.1 -294.99,-71.65 c -82.06,273.99 -211.83,642.2 -178.12,761.83 -6.08,12.25 -77.18,113.84 -173.33,256.68 -9.67,-118.99 -10.77,-140.73 -18.69,-231.53 -8.94,-102.51 -297.75,-813.782 -297.75,-813.782 l -264.69,75.892 c 58.2,237.52 168.81,717.62 214.68,759.9 l -59.5,397.58 c 0,0 -52.58,107.66 -63.54,184.38 -11.61,81.23 -7.65,142.2 -0.92,182.54 6.53,39.32 15.74,59.12 15.74,59.12 l 632.34,74.97 c 0,0 1.39,-3.31 4.06,-9.58 35.91,-85.46 301.71,-717.99 328.69,-810.82 28.92,-99.56 156.02,-815.53 156.02,-815.53"
         transform="translate(0,2.5e-5)"
         id="path52" />
    </clipPath>
    <clipPath
       clipPathUnits="userSpaceOnUse"
       id="clipPath54">
      <path
         d="m 2274.36,1076.1 -294.99,-71.65 c -82.06,273.99 -211.83,642.2 -178.12,761.83 -6.08,12.25 -77.18,113.84 -173.33,256.68 -9.67,-118.99 -10.77,-140.73 -18.69,-231.53 -8.94,-102.51 -297.75,-813.782 -297.75,-813.782 l -264.69,75.892 c 58.2,237.52 168.81,717.62 214.68,759.9 l -59.5,397.58 c 0,0 -52.58,107.66 -63.54,184.38 -11.61,81.23 -7.65,142.2 -0.92,182.54 6.53,39.32 15.74,59.12 15.74,59.12 l 632.34,74.97 c 0,0 1.39,-3.31 4.06,-9.58 35.91,-85.46 301.71,-717.99 328.69,-810.82 28.92,-99.56 156.02,-815.53 156.02,-815.53"
         transform="translate(0,2.5e-5)"
         id="path54" />
    </clipPath>
    <clipPath
       clipPathUnits="userSpaceOnUse"
       id="clipPath56">
      <path
         d="m 2274.36,1076.1 -294.99,-71.65 c -82.06,273.99 -211.83,642.2 -178.12,761.83 -6.08,12.25 -77.18,113.84 -173.33,256.68 -9.67,-118.99 -10.77,-140.73 -18.69,-231.53 -8.94,-102.51 -297.75,-813.782 -297.75,-813.782 l -264.69,75.892 c 58.2,237.52 168.81,717.62 214.68,759.9 l -59.5,397.58 c 0,0 -52.58,107.66 -63.54,184.38 -11.61,81.23 -7.65,142.2 -0.92,182.54 6.53,39.32 15.74,59.12 15.74,59.12 l 632.34,74.97 c 0,0 1.39,-3.31 4.06,-9.58 35.91,-85.46 301.71,-717.99 328.69,-810.82 28.92,-99.56 156.02,-815.53 156.02,-815.53"
         transform="translate(0,2.5e-5)"
         id="path56" />
    </clipPath>
    <clipPath
       clipPathUnits="userSpaceOnUse"
       id="clipPath58">
      <path
         d="m 2274.36,1076.1 -294.99,-71.65 c -82.06,273.99 -211.83,642.2 -178.12,761.83 -6.08,12.25 -77.18,113.84 -173.33,256.68 -9.67,-118.99 -10.77,-140.73 -18.69,-231.53 -8.94,-102.51 -297.75,-813.782 -297.75,-813.782 l -264.69,75.892 c 58.2,237.52 168.81,717.62 214.68,759.9 l -59.5,397.58 c 0,0 -52.58,107.66 -63.54,184.38 -11.61,81.23 -7.65,142.2 -0.92,182.54 6.53,39.32 15.74,59.12 15.74,59.12 l 632.34,74.97 c 0,0 1.39,-3.31 4.06,-9.58 35.91,-85.46 301.71,-717.99 328.69,-810.82 28.92,-99.56 156.02,-815.53 156.02,-815.53"
         transform="translate(0,2.5e-5)"
         id="path58" />
    </clipPath>
    <clipPath
       clipPathUnits="userSpaceOnUse"
       id="clipPath60">
      <path
         d="m 2274.36,1076.1 -294.99,-71.65 c -82.06,273.99 -211.83,642.2 -178.12,761.83 -6.08,12.25 -77.18,113.84 -173.33,256.68 -9.67,-118.99 -10.77,-140.73 -18.69,-231.53 -8.94,-102.51 -297.75,-813.782 -297.75,-813.782 l -264.69,75.892 c 58.2,237.52 168.81,717.62 214.68,759.9 l -59.5,397.58 c 0,0 -52.58,107.66 -63.54,184.38 -11.61,81.23 -7.65,142.2 -0.92,182.54 6.53,39.32 15.74,59.12 15.74,59.12 l 632.34,74.97 c 0,0 1.39,-3.31 4.06,-9.58 35.91,-85.46 301.71,-717.99 328.69,-810.82 28.92,-99.56 156.02,-815.53 156.02,-815.53"
         transform="translate(0,2.5e-5)"
         id="path60" />
    </clipPath>
    <clipPath
       clipPathUnits="userSpaceOnUse"
       id="clipPath62">
      <path
         d="m 2274.36,1076.1 -294.99,-71.65 c -82.06,273.99 -211.83,642.2 -178.12,761.83 -6.08,12.25 -77.18,113.84 -173.33,256.68 -9.67,-118.99 -10.77,-140.73 -18.69,-231.53 -8.94,-102.51 -297.75,-813.782 -297.75,-813.782 l -264.69,75.892 c 58.2,237.52 168.81,717.62 214.68,759.9 l -59.5,397.58 c 0,0 -52.58,107.66 -63.54,184.38 -11.61,81.23 -7.65,142.2 -0.92,182.54 6.53,39.32 15.74,59.12 15.74,59.12 l 632.34,74.97 c 0,0 1.39,-3.31 4.06,-9.58 35.91,-85.46 301.71,-717.99 328.69,-810.82 28.92,-99.56 156.02,-815.53 156.02,-815.53"
         transform="translate(0,2.5e-5)"
         id="path62" />
    </clipPath>
    <clipPath
       clipPathUnits="userSpaceOnUse"
       id="clipPath64">
      <path
         d="m 2274.36,1076.1 -294.99,-71.65 c -82.06,273.99 -211.83,642.2 -178.12,761.83 -6.08,12.25 -77.18,113.84 -173.33,256.68 -9.67,-118.99 -10.77,-140.73 -18.69,-231.53 -8.94,-102.51 -297.75,-813.782 -297.75,-813.782 l -264.69,75.892 c 58.2,237.52 168.81,717.62 214.68,759.9 l -59.5,397.58 c 0,0 -52.58,107.66 -63.54,184.38 -11.61,81.23 -7.65,142.2 -0.92,182.54 6.53,39.32 15.74,59.12 15.74,59.12 l 632.34,74.97 c 0,0 1.39,-3.31 4.06,-9.58 35.91,-85.46 301.71,-717.99 328.69,-810.82 28.92,-99.56 156.02,-815.53 156.02,-815.53"
         transform="translate(0,2.5e-5)"
         id="path64" />
    </clipPath>
    <clipPath
       clipPathUnits="userSpaceOnUse"
       id="clipPath66">
      <path
         d="m 2274.36,1076.1 -294.99,-71.65 c -82.06,273.99 -211.83,642.2 -178.12,761.83 -6.08,12.25 -77.18,113.84 -173.33,256.68 -9.67,-118.99 -10.77,-140.73 -18.69,-231.53 -8.94,-102.51 -297.75,-813.782 -297.75,-813.782 l -264.69,75.892 c 58.2,237.52 168.81,717.62 214.68,759.9 l -59.5,397.58 c 0,0 -52.58,107.66 -63.54,184.38 -11.61,81.23 -7.65,142.2 -0.92,182.54 6.53,39.32 15.74,59.12 15.74,59.12 l 632.34,74.97 c 0,0 1.39,-3.31 4.06,-9.58 35.91,-85.46 301.71,-717.99 328.69,-810.82 28.92,-99.56 156.02,-815.53 156.02,-815.53"
         transform="translate(0,2.5e-5)"
         id="path66" />
    </clipPath>
    <clipPath
       clipPathUnits="userSpaceOnUse"
       id="clipPath68">
      <path
         d="m 2274.36,1076.1 -294.99,-71.65 c -82.06,273.99 -211.83,642.2 -178.12,761.83 -6.08,12.25 -77.18,113.84 -173.33,256.68 -9.67,-118.99 -10.77,-140.73 -18.69,-231.53 -8.94,-102.51 -297.75,-813.782 -297.75,-813.782 l -264.69,75.892 c 58.2,237.52 168.81,717.62 214.68,759.9 l -59.5,397.58 c 0,0 -52.58,107.66 -63.54,184.38 -11.61,81.23 -7.65,142.2 -0.92,182.54 6.53,39.32 15.74,59.12 15.74,59.12 l 632.34,74.97 c 0,0 1.39,-3.31 4.06,-9.58 35.91,-85.46 301.71,-717.99 328.69,-810.82 28.92,-99.56 156.02,-815.53 156.02,-815.53"
         transform="translate(0,2.5e-5)"
         id="path68" />
    </clipPath>
    <clipPath
       clipPathUnits="userSpaceOnUse"
       id="clipPath70">
      <path
         d="m 2274.36,1076.1 -294.99,-71.65 c -82.06,273.99 -211.83,642.2 -178.12,761.83 -6.08,12.25 -77.18,113.84 -173.33,256.68 -9.67,-118.99 -10.77,-140.73 -18.69,-231.53 -8.94,-102.51 -297.75,-813.782 -297.75,-813.782 l -264.69,75.892 c 58.2,237.52 168.81,717.62 214.68,759.9 l -59.5,397.58 c 0,0 -52.58,107.66 -63.54,184.38 -11.61,81.23 -7.65,142.2 -0.92,182.54 6.53,39.32 15.74,59.12 15.74,59.12 l 632.34,74.97 c 0,0 1.39,-3.31 4.06,-9.58 35.91,-85.46 301.71,-717.99 328.69,-810.82 28.92,-99.56 156.02,-815.53 156.02,-815.53"
         transform="translate(0,2.5e-5)"
         id="path70" />
    </clipPath>
    <clipPath
       clipPathUnits="userSpaceOnUse"
       id="clipPath72">
      <path
         d="m 2274.36,1076.1 -294.99,-71.65 c -82.06,273.99 -211.83,642.2 -178.12,761.83 -6.08,12.25 -77.18,113.84 -173.33,256.68 -9.67,-118.99 -10.77,-140.73 -18.69,-231.53 -8.94,-102.51 -297.75,-813.782 -297.75,-813.782 l -264.69,75.892 c 58.2,237.52 168.81,717.62 214.68,759.9 l -59.5,397.58 c 0,0 -52.58,107.66 -63.54,184.38 -11.61,81.23 -7.65,142.2 -0.92,182.54 6.53,39.32 15.74,59.12 15.74,59.12 l 632.34,74.97 c 0,0 1.39,-3.31 4.06,-9.58 35.91,-85.46 301.71,-717.99 328.69,-810.82 28.92,-99.56 156.02,-815.53 156.02,-815.53"
         transform="translate(0,2.5e-5)"
         id="path72" />
    </clipPath>
    <clipPath
       clipPathUnits="userSpaceOnUse"
       id="clipPath74">
      <path
         d="m 2274.36,1076.1 -294.99,-71.65 c -82.06,273.99 -211.83,642.2 -178.12,761.83 -6.08,12.25 -77.18,113.84 -173.33,256.68 -9.67,-118.99 -10.77,-140.73 -18.69,-231.53 -8.94,-102.51 -297.75,-813.782 -297.75,-813.782 l -264.69,75.892 c 58.2,237.52 168.81,717.62 214.68,759.9 l -59.5,397.58 c 0,0 -52.58,107.66 -63.54,184.38 -11.61,81.23 -7.65,142.2 -0.92,182.54 6.53,39.32 15.74,59.12 15.74,59.12 l 632.34,74.97 c 0,0 1.39,-3.31 4.06,-9.58 35.91,-85.46 301.71,-717.99 328.69,-810.82 28.92,-99.56 156.02,-815.53 156.02,-815.53"
         transform="translate(0,2.5e-5)"
         id="path74" />
    </clipPath>
  </defs>
  <sodipodi:namedview
     id="namedview1"
     pagecolor="#ffffff"
     bordercolor="#000000"
     borderopacity="0.25"
     inkscape:showpageshadow="2"
     inkscape:pageopacity="0.0"
     inkscape:pagecheckerboard="0"
     inkscape:deskcolor="#d1d1d1">
    <inkscape:page
       x="0"
       y="0"
       inkscape:label="1"
       id="page1"
       width="800"
       height="666.66669"
       margin="0"
       bleed="0" />
  </sodipodi:namedview>
  <g
     id="g1"
     inkscape:groupmode="layer"
     inkscape:label="1">
    <g
       id="group-R5">
      <path
         id="path2"
         d="M 0,0 H 6000 V 5000 H 0 Z"
         style="fill:#ffffff;fill-opacity:1;fill-rule:nonzero;stroke:none"
         transform="matrix(0.13333333,0,0,-0.13333333,0,666.66667)" />
      <path
         id="path3"
         d="m 1973.73,2055.71 c -32.1,0 -58.23,26.13 -58.23,58.23 v 659.52 c 0,32.11 26.13,58.23 58.23,58.23 h 905.71 c 32.1,0 58.23,-26.12 58.23,-58.23 v -659.52 c 0,-32.1 -26.13,-58.23 -58.23,-58.23 h -905.71"
         style="fill:#ffffff;fill-opacity:1;fill-rule:nonzero;stroke:none"
         transform="matrix(0.13333333,0,0,-0.13333333,0,666.66667)" />
      <path
         id="path4"
         d="m 2879.44,2835.44 h -905.71 c -34.23,0 -61.98,-27.75 -61.98,-61.98 v -659.52 c 0,-34.23 27.75,-61.98 61.98,-61.98 h 905.71 c 34.23,0 61.98,27.75 61.98,61.98 v 659.52 c 0,34.23 -27.75,61.98 -61.98,61.98 m 0,-7.5 c 30.04,0 54.48,-24.44 54.48,-54.48 v -659.52 c 0,-30.04 -24.44,-54.48 -54.48,-54.48 h -905.71 c -30.04,0 -54.48,24.44 -54.48,54.48 v 659.52 c 0,30.04 24.44,54.48 54.48,54.48 h 905.71"
         style="fill:#100f0d;fill-opacity:1;fill-rule:nonzero;stroke:none"
         transform="matrix(0.13333333,0,0,-0.13333333,0,666.66667)" />
      <path
         id="path5"
         d="m 2593.67,2194.43 h -592.36 c -0.25,0 -0.51,0 -0.76,0.01 -11.07,27.12 -22.43,54.86 -33.89,82.72 v 467.33 c 0,19.14 15.52,34.65 34.65,34.65 h 592.36 c 19.13,0 34.64,-15.51 34.64,-34.65 v -515.42 c 0,-19.13 -15.51,-34.64 -34.64,-34.64"
         style="fill:#c5ebf8;fill-opacity:1;fill-rule:nonzero;stroke:none"
         transform="matrix(0.13333333,0,0,-0.13333333,0,666.66667)" />
      <path
         id="path6"
         d="m 2422.66,2499.25 -181.27,129.18 c -19.11,13.62 -45.62,-0.04 -45.62,-23.51 v -258.35 c 0,-23.47 26.51,-37.13 45.62,-23.51 l 181.27,129.17 c 16.15,11.51 16.15,35.51 0,47.02"
         style="fill:#100f0d;fill-opacity:1;fill-rule:nonzero;stroke:none"
         transform="matrix(0.13333333,0,0,-0.13333333,0,666.66667)" />
      <path
         id="path7"
         d="m 2852.94,2194.43 h -144.56 c -16.66,0 -30.17,13.5 -30.17,30.16 v 524.38 c 0,16.66 13.51,30.17 30.17,30.17 h 144.56 c 16.66,0 30.16,-13.51 30.16,-30.17 v -524.38 c 0,-16.66 -13.5,-30.16 -30.16,-30.16"
         style="fill:#c5ebf8;fill-opacity:1;fill-rule:nonzero;stroke:none"
         transform="matrix(0.13333333,0,0,-0.13333333,0,666.66667)" />
      <path
         id="path8"
         d="M 2866.47,2120.05 H 1983.3 c -9.19,0 -16.64,7.45 -16.64,16.63 v 0 c 0,9.19 7.45,16.63 16.64,16.63 h 883.17 c 9.19,0 16.64,-7.44 16.64,-16.63 v 0 c 0,-9.18 -7.45,-16.63 -16.64,-16.63"
         style="fill:#100f0d;fill-opacity:1;fill-rule:nonzero;stroke:none"
         transform="matrix(0.13333333,0,0,-0.13333333,0,666.66667)" />
      <path
         id="path9"
         d="m 2330.09,2153.36 v -33.32 h -346.84 c -9.12,0 -16.56,7.45 -16.56,16.66 0,9.21 7.44,16.66 16.56,16.66 h 346.84"
         style="fill:#ec2835;fill-opacity:1;fill-rule:nonzero;stroke:none"
         transform="matrix(0.13333333,0,0,-0.13333333,0,666.66667)" />
      <path
         id="path10"
         d="m 2381.88,2136.7 c 0,-24.54 -19.9,-44.44 -44.44,-44.44 -24.54,0 -44.44,19.9 -44.44,44.44 0,24.54 19.9,44.44 44.44,44.44 24.54,0 44.44,-19.9 44.44,-44.44"
         style="fill:#ec2835;fill-opacity:1;fill-rule:nonzero;stroke:none"
         transform="matrix(0.13333333,0,0,-0.13333333,0,666.66667)" />
      <path
         id="path11"
         d="m 2360.27,2136.7 c 0,-12.61 -10.22,-22.83 -22.83,-22.83 -12.61,0 -22.83,10.22 -22.83,22.83 0,12.61 10.22,22.83 22.83,22.83 12.61,0 22.83,-10.22 22.83,-22.83"
         style="fill:#ffffff;fill-opacity:1;fill-rule:nonzero;stroke:none"
         transform="matrix(0.13333333,0,0,-0.13333333,0,666.66667)" />
      <path
         id="path12"
         d="m 2728.5,4378.86 h -680.74 c -41.88,0 -75.83,-33.95 -75.83,-75.84 v -350.95 l 114.53,114.54 h 642.04 c 41.88,0 75.83,33.95 75.83,75.83 v 160.58 c 0,41.89 -33.95,75.84 -75.83,75.84"
         style="fill:#66c5ef;fill-opacity:1;fill-rule:nonzero;stroke:none"
         transform="matrix(0.13333333,0,0,-0.13333333,0,666.66667)" />
      <path
         id="path13"
         d="m 2068.92,4302.66 h 638.41 c 2.07,0 3.75,1.68 3.75,3.75 0,2.07 -1.68,3.75 -3.75,3.75 h -638.41 c -2.07,0 -3.75,-1.68 -3.75,-3.75 0,-2.07 1.68,-3.75 3.75,-3.75"
         style="fill:#100f0d;fill-opacity:1;fill-rule:nonzero;stroke:none"
         transform="matrix(0.13333333,0,0,-0.13333333,0,666.66667)" />
      <path
         id="path14"
         d="m 2068.92,4225.06 h 186.73 c 2.07,0 3.75,1.68 3.75,3.75 0,2.07 -1.68,3.75 -3.75,3.75 h -186.73 c -2.07,0 -3.75,-1.68 -3.75,-3.75 0,-2.07 1.68,-3.75 3.75,-3.75"
         style="fill:#100f0d;fill-opacity:1;fill-rule:nonzero;stroke:none"
         transform="matrix(0.13333333,0,0,-0.13333333,0,666.66667)" />
      <path
         id="path15"
         d="m 2308.56,4225.06 h 398.77 c 2.07,0 3.75,1.68 3.75,3.75 0,2.07 -1.68,3.75 -3.75,3.75 h -398.77 c -2.08,0 -3.75,-1.68 -3.75,-3.75 0,-2.07 1.67,-3.75 3.75,-3.75"
         style="fill:#100f0d;fill-opacity:1;fill-rule:nonzero;stroke:none"
         transform="matrix(0.13333333,0,0,-0.13333333,0,666.66667)" />
      <path
         id="path16"
         d="m 2068.92,4147.46 h 281.96 c 2.07,0 3.75,1.68 3.75,3.75 0,2.08 -1.68,3.75 -3.75,3.75 h -281.96 c -2.07,0 -3.75,-1.67 -3.75,-3.75 0,-2.07 1.68,-3.75 3.75,-3.75"
         style="fill:#100f0d;fill-opacity:1;fill-rule:nonzero;stroke:none"
         transform="matrix(0.13333333,0,0,-0.13333333,0,666.66667)" />
      <path
         id="path17"
         d="m 4989.5,3702.8 h 5 c 0,72.37 29.32,137.84 76.74,185.27 47.43,47.43 112.91,76.74 185.28,76.75 72.37,-0.01 137.84,-29.32 185.28,-76.75 47.42,-47.43 76.74,-112.9 76.74,-185.27 0,-72.37 -29.32,-137.85 -76.74,-185.28 -47.44,-47.42 -112.91,-76.74 -185.28,-76.74 -49.47,0 -95.7,13.71 -135.17,37.53 -1.96,1.18 -4.5,0.87 -6.12,-0.75 L 4994.5,3356.83 v 345.97 h -5 -5 v -358.05 c 0,-2.02 1.22,-3.84 3.08,-4.61 1.87,-0.78 4.02,-0.35 5.45,1.08 l 129.27,129.27 -3.53,3.53 -2.59,-4.28 c 40.97,-24.72 89.01,-38.97 140.34,-38.96 150.23,0 272.02,121.78 272.02,272.02 0,150.23 -121.79,272.01 -272.02,272.02 -150.24,-0.01 -272.02,-121.79 -272.02,-272.02 h 5"
         style="fill:#100f0d;fill-opacity:1;fill-rule:nonzero;stroke:none"
         transform="matrix(0.13333333,0,0,-0.13333333,0,666.66667)" />
      <path
         id="path18"
         d="m 5356.7,3703.76 c 0,-21.62 17.53,-39.15 39.15,-39.15 21.62,0 39.14,17.53 39.14,39.15 0,21.62 -17.52,39.14 -39.14,39.14 -21.62,0 -39.15,-17.52 -39.15,-39.14"
         style="fill:#66c5ef;fill-opacity:1;fill-rule:nonzero;stroke:none"
         transform="matrix(0.13333333,0,0,-0.13333333,0,666.66667)" />
      <path
         id="path19"
         d="m 5217.37,3703.76 c 0,-21.62 17.53,-39.15 39.15,-39.15 21.62,0 39.14,17.53 39.14,39.15 0,21.62 -17.52,39.14 -39.14,39.14 -21.62,0 -39.15,-17.52 -39.15,-39.14"
         style="fill:#66c5ef;fill-opacity:1;fill-rule:nonzero;stroke:none"
         transform="matrix(0.13333333,0,0,-0.13333333,0,666.66667)" />
      <path
         id="path20"
         d="m 5078.04,3703.76 c 0,-21.62 17.53,-39.15 39.15,-39.15 21.62,0 39.14,17.53 39.14,39.15 0,21.62 -17.52,39.14 -39.14,39.14 -21.62,0 -39.15,-17.52 -39.15,-39.14"
         style="fill:#66c5ef;fill-opacity:1;fill-rule:nonzero;stroke:none"
         transform="matrix(0.13333333,0,0,-0.13333333,0,666.66667)" />
      <path
         id="path21"
         d="m 1952.02,728.281 c -14.39,46.321 -1.91,133.699 72.35,177.328 112.64,66.18 243.72,31.301 296.88,-34.789 -6.93,21.309 4.53,46.95 25.03,56 20.5,9.059 47.17,0.262 58.25,-19.218 20.12,54.199 79.69,84.988 137.21,90.757 50.14,5.031 102.94,-5.918 143.15,-36.289 40.22,-30.371 65.85,-81.422 59.72,-131.441 36.42,50.07 106.99,64.703 165.85,45.512 66.14,-21.571 92.3,-90.852 80.99,-151.711"
         style="fill:#26b39a;fill-opacity:1;fill-rule:nonzero;stroke:none"
         transform="matrix(0.13333333,0,0,-0.13333333,0,666.66667)" />
      <path
         id="path22"
         d="m 2111.33,752.609 c 1.66,-16.207 3.77,-28.179 3.77,-28.179 H 2664 c 0,0 4.79,12.25 1.75,28.179 -2.21,12.711 -9.39,27.723 -27.72,40.61 -70.17,49.551 -349.41,128.761 -349.41,128.761 l -173.98,-98.832 c -6.9,-17.398 -5.61,-47.976 -3.31,-70.539"
         style="fill:#100f0d;fill-opacity:1;fill-rule:nonzero;stroke:none"
         transform="matrix(0.13333333,0,0,-0.13333333,0,666.66667)" />
      <path
         id="path23"
         d="m 2111.33,752.609 c -4.14,-11.879 0,-28.179 0,-28.179 h 556.82 c 0,0 6.76,16.3 -2.4,28.179 h -554.42"
         style="fill:#66c5ef;fill-opacity:1;fill-rule:nonzero;stroke:none"
         transform="matrix(0.13333333,0,0,-0.13333333,0,666.66667)" />
      <path
         id="path24"
         d="m 2433.07,878.34 c -0.09,-0.168 -12.62,-24.121 -23.34,-57.449 -0.84,-2.629 0.6,-5.45 3.23,-6.289 2.63,-0.852 5.45,0.597 6.29,3.23 5.22,16.25 10.91,30.258 15.29,40.188 2.18,4.96 4.04,8.902 5.35,11.589 0.65,1.352 1.17,2.383 1.51,3.071 l 0.53,1.019 c 1.28,2.449 0.33,5.473 -2.12,6.75 -2.44,1.281 -5.46,0.332 -6.74,-2.109"
         style="fill:#66c5ef;fill-opacity:1;fill-rule:nonzero;stroke:none"
         transform="matrix(0.13333333,0,0,-0.13333333,0,666.66667)" />
      <path
         id="path25"
         d="m 2368.53,898.871 c -0.06,-0.133 -12.56,-25.871 -23.26,-59.152 -0.85,-2.629 0.6,-5.438 3.23,-6.289 2.63,-0.84 5.44,0.601 6.29,3.23 5.23,16.281 10.93,30.781 15.31,41.18 2.2,5.211 4.06,9.39 5.37,12.262 1.31,2.867 2.06,4.398 2.06,4.398 1.21,2.492 0.17,5.48 -2.31,6.691 -2.49,1.2 -5.48,0.168 -6.69,-2.32"
         style="fill:#66c5ef;fill-opacity:1;fill-rule:nonzero;stroke:none"
         transform="matrix(0.13333333,0,0,-0.13333333,0,666.66667)" />
      <path
         id="path26"
         d="m 2288.62,921.98 -46.97,235.1 -205.46,-71.43 78.45,-262.49 173.98,98.82"
         style="fill:#941b1f;fill-opacity:1;fill-rule:nonzero;stroke:none"
         transform="matrix(0.13333333,0,0,-0.13333333,0,666.66667)" />
      <path
         id="path27"
         d="m 2262.84,1050.87 -194.6,-72.479 -32.05,107.289 205.47,71.38 21.18,-106.19"
         style="fill:#100f0d;fill-opacity:1;fill-rule:nonzero;stroke:none"
         transform="matrix(0.13333333,0,0,-0.13333333,0,666.66667)" />
      <path
         id="path28"
         d="m 1032.77,752.609 c 1.65,-16.207 3.77,-28.179 3.77,-28.179 h 548.9 c 0,0 4.79,12.25 1.75,28.179 -2.21,12.711 -9.39,27.723 -27.72,40.61 -70.18,49.551 -349.42,128.761 -349.42,128.761 l -173.97,-98.832 c -6.91,-17.398 -5.62,-47.976 -3.31,-70.539"
         style="fill:#100f0d;fill-opacity:1;fill-rule:nonzero;stroke:none"
         transform="matrix(0.13333333,0,0,-0.13333333,0,666.66667)" />
      <path
         id="path29"
         d="m 1032.77,752.609 c -4.14,-11.879 0,-28.179 0,-28.179 h 556.82 c 0,0 6.76,16.3 -2.4,28.179 h -554.42"
         style="fill:#66c5ef;fill-opacity:1;fill-rule:nonzero;stroke:none"
         transform="matrix(0.13333333,0,0,-0.13333333,0,666.66667)" />
      <path
         id="path30"
         d="m 1354.5,878.34 c -0.08,-0.168 -12.62,-24.121 -23.33,-57.449 -0.85,-2.629 0.6,-5.45 3.23,-6.289 2.63,-0.852 5.44,0.597 6.29,3.23 5.22,16.25 10.91,30.258 15.28,40.188 2.19,4.96 4.05,8.902 5.35,11.589 0.66,1.352 1.17,2.383 1.52,3.071 l 0.52,1.019 c 1.28,2.449 0.34,5.473 -2.11,6.75 -2.45,1.281 -5.47,0.332 -6.75,-2.109"
         style="fill:#66c5ef;fill-opacity:1;fill-rule:nonzero;stroke:none"
         transform="matrix(0.13333333,0,0,-0.13333333,0,666.66667)" />
      <path
         id="path31"
         d="m 1289.97,898.871 c -0.06,-0.133 -12.57,-25.871 -23.27,-59.152 -0.84,-2.629 0.6,-5.438 3.23,-6.289 2.63,-0.84 5.45,0.601 6.29,3.23 5.24,16.281 10.94,30.781 15.32,41.18 2.19,5.211 4.06,9.39 5.37,12.262 1.31,2.867 2.05,4.398 2.06,4.398 1.2,2.492 0.17,5.48 -2.32,6.691 -2.48,1.2 -5.47,0.168 -6.68,-2.32"
         style="fill:#66c5ef;fill-opacity:1;fill-rule:nonzero;stroke:none"
         transform="matrix(0.13333333,0,0,-0.13333333,0,666.66667)" />
      <path
         id="path32"
         d="m 1210.05,921.98 99.51,159.26 -222.17,47.62 -51.31,-305.7 173.97,98.82"
         style="fill:#941b1f;fill-opacity:1;fill-rule:nonzero;stroke:none"
         transform="matrix(0.13333333,0,0,-0.13333333,0,666.66667)" />
      <path
         id="path33"
         d="m 1309.54,1081.26 -63.64,-101.951 -179.4,25.141 20.9,124.43 222.14,-47.62"
         style="fill:#100f0d;fill-opacity:1;fill-rule:nonzero;stroke:none"
         transform="matrix(0.13333333,0,0,-0.13333333,0,666.66667)" />
      <path
         id="path34"
         d="m 2274.36,1076.1 -294.99,-71.65 c -82.06,273.99 -211.83,642.2 -178.12,761.83 -6.08,12.25 -77.18,113.84 -173.33,256.68 -9.67,-118.99 -10.77,-140.73 -18.69,-231.53 -8.94,-102.51 -297.75,-813.782 -297.75,-813.782 l -264.69,75.892 c 58.2,237.52 168.81,717.62 214.68,759.9 l -59.5,397.58 c 0,0 -52.58,107.66 -63.54,184.38 -11.61,81.23 -7.65,142.2 -0.92,182.54 6.53,39.32 15.74,59.12 15.74,59.12 l 632.34,74.97 c 0,0 1.39,-3.31 4.06,-9.58 35.91,-85.46 301.71,-717.99 328.69,-810.82 28.92,-99.56 156.02,-815.53 156.02,-815.53"
         style="fill:#66c5ef;fill-opacity:1;fill-rule:nonzero;stroke:none"
         transform="matrix(0.13333333,0,0,-0.13333333,0,666.66667)" />
      <path
         id="path35"
         d="m 1375.39,2377.31 -36.39,27.9 123.34,160.84 36.38,-27.91 -123.33,-160.83"
         style="fill:#b1e5f2;fill-opacity:1;fill-rule:nonzero;stroke:none"
         transform="matrix(0.13333333,0,0,-0.13333333,0,666.66667)"
         clip-path="url(#clipPath36)" />
      <path
         id="path37"
         d="m 1683.26,2017.81 -195.02,55.2 12.48,44.12 195.02,-55.2 -12.48,-44.12"
         style="fill:#b1e5f2;fill-opacity:1;fill-rule:nonzero;stroke:none"
         transform="matrix(0.13333333,0,0,-0.13333333,0,666.66667)"
         clip-path="url(#clipPath38)" />
      <path
         id="path39"
         d="m 1799.98,2235.7 -1.85,45.82 164.02,6.61 c 6.21,-15.08 12.4,-30.16 18.54,-45.14 l -180.71,-7.29"
         style="fill:#b1e5f2;fill-opacity:1;fill-rule:nonzero;stroke:none"
         transform="matrix(0.13333333,0,0,-0.13333333,0,666.66667)"
         clip-path="url(#clipPath40)" />
      <path
         id="path41"
         d="m 1961.29,2040.59 -202.42,10.26 2.32,45.79 202.42,-10.25 -2.32,-45.8"
         style="fill:#b1e5f2;fill-opacity:1;fill-rule:nonzero;stroke:none"
         transform="matrix(0.13333333,0,0,-0.13333333,0,666.66667)"
         clip-path="url(#clipPath42)" />
      <path
         id="path43"
         d="m 1895.88,1792.97 -29.61,35.01 154.74,130.89 29.61,-35 -154.74,-130.9"
         style="fill:#b1e5f2;fill-opacity:1;fill-rule:nonzero;stroke:none"
         transform="matrix(0.13333333,0,0,-0.13333333,0,666.66667)"
         clip-path="url(#clipPath44)" />
      <path
         id="path45"
         d="m 1937.64,1485.48 h -101.95 c -4.02,15.61 -7.83,30.92 -11.37,45.86 h 113.32 v -45.86"
         style="fill:#b1e5f2;fill-opacity:1;fill-rule:nonzero;stroke:none"
         transform="matrix(0.13333333,0,0,-0.13333333,0,666.66667)"
         clip-path="url(#clipPath46)" />
      <path
         id="path47"
         d="m 2147.31,1533.68 -160.83,123.33 27.9,36.39 160.84,-123.34 -27.91,-36.38"
         style="fill:#b1e5f2;fill-opacity:1;fill-rule:nonzero;stroke:none"
         transform="matrix(0.13333333,0,0,-0.13333333,0,666.66667)"
         clip-path="url(#clipPath48)" />
      <path
         id="path49"
         d="m 2082.71,1742.58 -20.93,40.8 73.09,37.51 c 2.99,-14.12 6.23,-29.76 9.65,-46.59 l -61.81,-31.72"
         style="fill:#b1e5f2;fill-opacity:1;fill-rule:nonzero;stroke:none"
         transform="matrix(0.13333333,0,0,-0.13333333,0,666.66667)"
         clip-path="url(#clipPath50)" />
      <path
         id="path51"
         d="m 1920.94,1278.33 -9.27,44.91 198.49,40.98 9.27,-44.9 -198.49,-40.99"
         style="fill:#b1e5f2;fill-opacity:1;fill-rule:nonzero;stroke:none"
         transform="matrix(0.13333333,0,0,-0.13333333,0,666.66667)"
         clip-path="url(#clipPath52)" />
      <path
         id="path53"
         d="m 2145.86,1091.37 -32.42,32.43 129.15,129.15 c 3.52,-19.44 6.85,-37.88 9.93,-54.92 l -106.66,-106.66"
         style="fill:#b1e5f2;fill-opacity:1;fill-rule:nonzero;stroke:none"
         transform="matrix(0.13333333,0,0,-0.13333333,0,666.66667)"
         clip-path="url(#clipPath54)" />
      <path
         id="path55"
         d="m 1790.8,2430.72 -32.42,32.43 92.69,92.7 c 6.1,-14.6 12.48,-29.88 19.1,-45.76 l -79.37,-79.37"
         style="fill:#b1e5f2;fill-opacity:1;fill-rule:nonzero;stroke:none"
         transform="matrix(0.13333333,0,0,-0.13333333,0,666.66667)"
         clip-path="url(#clipPath56)" />
      <path
         id="path57"
         d="m 1680.44,2562.22 -191.75,65.65 14.85,43.38 191.75,-65.65 -14.85,-43.38"
         style="fill:#b1e5f2;fill-opacity:1;fill-rule:nonzero;stroke:none"
         transform="matrix(0.13333333,0,0,-0.13333333,0,666.66667)"
         clip-path="url(#clipPath58)" />
      <path
         id="path59"
         d="m 1293.77,1741.96 -1.85,45.82 202.52,8.17 1.84,-45.82 -202.51,-8.17"
         style="fill:#b1e5f2;fill-opacity:1;fill-rule:nonzero;stroke:none"
         transform="matrix(0.13333333,0,0,-0.13333333,0,666.66667)"
         clip-path="url(#clipPath60)" />
      <path
         id="path61"
         d="m 1494.34,1444.15 -131.5,66.78 20.76,40.88 126.92,-64.45 c -5.31,-14.28 -10.7,-28.68 -16.18,-43.21"
         style="fill:#b1e5f2;fill-opacity:1;fill-rule:nonzero;stroke:none"
         transform="matrix(0.13333333,0,0,-0.13333333,0,666.66667)"
         clip-path="url(#clipPath62)" />
      <path
         id="path63"
         d="m 1399.66,1198.78 h -15.84 v 202.68 h 45.85 v -125.99 c -10.27,-26.4 -20.35,-52.14 -30.01,-76.69"
         style="fill:#b1e5f2;fill-opacity:1;fill-rule:nonzero;stroke:none"
         transform="matrix(0.13333333,0,0,-0.13333333,0,666.66667)"
         clip-path="url(#clipPath64)" />
      <path
         id="path65"
         d="m 1217.48,1320.12 -94.1,47.78 c 3.79,15.23 7.61,30.46 11.43,45.62 l 103.43,-52.52 -20.76,-40.88"
         style="fill:#b1e5f2;fill-opacity:1;fill-rule:nonzero;stroke:none"
         transform="matrix(0.13333333,0,0,-0.13333333,0,666.66667)"
         clip-path="url(#clipPath66)" />
      <path
         id="path67"
         d="m 1149.98,1118.95 -12.47,44.12 195.04,55.12 12.47,-44.12 -195.04,-55.12"
         style="fill:#b1e5f2;fill-opacity:1;fill-rule:nonzero;stroke:none"
         transform="matrix(0.13333333,0,0,-0.13333333,0,666.66667)"
         clip-path="url(#clipPath68)" />
      <path
         id="path69"
         d="m 1139.7,2387.41 c -0.47,2.69 -0.9,5.36 -1.27,7.99 -1.89,13.21 -3.37,25.89 -4.49,38.03 l 115.13,32.54 12.47,-44.13 -121.84,-34.43"
         style="fill:#b1e5f2;fill-opacity:1;fill-rule:nonzero;stroke:none"
         transform="matrix(0.13333333,0,0,-0.13333333,0,666.66667)"
         clip-path="url(#clipPath70)" />
      <path
         id="path71"
         d="m 1494.15,1965.19 -202.42,10.26 2.32,45.79 202.42,-10.26 -2.32,-45.79"
         style="fill:#b1e5f2;fill-opacity:1;fill-rule:nonzero;stroke:none"
         transform="matrix(0.13333333,0,0,-0.13333333,0,666.66667)"
         clip-path="url(#clipPath72)" />
      <path
         id="path73"
         d="m 1320.7,2184.54 -16.69,42.71 188.79,73.76 16.68,-42.71 -188.78,-73.76"
         style="fill:#b1e5f2;fill-opacity:1;fill-rule:nonzero;stroke:none"
         transform="matrix(0.13333333,0,0,-0.13333333,0,666.66667)"
         clip-path="url(#clipPath74)" />
      <path
         id="path75"
         d="m 1628.56,2023.67 v 372.12 l 46.73,64.94 -23.36,-73.76 75.76,-511.05 -99.13,147.75"
         style="fill:#100f0d;fill-opacity:1;fill-rule:nonzero;stroke:none"
         transform="matrix(0.13333333,0,0,-0.13333333,0,666.66667)" />
      <path
         id="path76"
         d="m 1955.5,3528.19 c 0,0 -263.94,-3.48 -522.6,12.98 -140.9,8.97 -298.63,98.76 -406.79,65.84 -241.825,-73.6 -121.251,-467.46 -121.251,-467.46 l 189.901,55.01 58.48,-557.5 c 0,0 370.04,42.19 632.37,74.94 l 4.1,553.42 168.73,-25.23 -2.94,288"
         style="fill:#fab735;fill-opacity:1;fill-rule:nonzero;stroke:none"
         transform="matrix(0.13333333,0,0,-0.13333333,0,666.66667)" />
      <path
         id="path77"
         d="m 1401.99,3986.65 c 0,0 -117.31,-17.69 -136.88,-135.99 -17.82,-107.71 39.52,-236.34 39.52,-236.34 l 356.43,143.35 c 0,0 -73.61,256.48 -259.07,228.98"
         style="fill:#100f0d;fill-opacity:1;fill-rule:nonzero;stroke:none"
         transform="matrix(0.13333333,0,0,-0.13333333,0,666.66667)" />
      <path
         id="path78"
         d="m 1324.86,3848.52 c -13.69,-85.04 28.59,-190.94 144.63,-195.7 107.29,-4.4 168.83,123.23 95.61,237.88 -58.39,91.43 -220.23,82.16 -240.24,-42.18"
         style="fill:#941b1f;fill-opacity:1;fill-rule:nonzero;stroke:none"
         transform="matrix(0.13333333,0,0,-0.13333333,0,666.66667)" />
      <path
         id="path79"
         d="m 1400.12,3814.69 c 1.39,-93.78 2.39,-155.43 2.39,-155.43 0,0 -106.41,43.07 -85.71,187.96 17.82,124.64 196.99,143.8 248.3,43.49 -12.52,-49.35 -103.73,-83.61 -164.98,-76.02"
         style="fill:#100f0d;fill-opacity:1;fill-rule:nonzero;stroke:none"
         transform="matrix(0.13333333,0,0,-0.13333333,0,666.66667)" />
      <path
         id="path80"
         d="m 1514.49,3083.31 c -20.02,0 -36.3,16.28 -36.3,36.3 v 446.1 c 0,20.02 16.28,36.3 36.3,36.3 h 726.76 c 20.01,0 36.29,-16.28 36.29,-36.3 v -446.1 c 0,-20.02 -16.28,-36.3 -36.29,-36.3 h -726.76"
         style="fill:#ffffff;fill-opacity:1;fill-rule:nonzero;stroke:none"
         transform="matrix(0.13333333,0,0,-0.13333333,0,666.66667)" />
      <path
         id="path81"
         d="m 2241.24,3607.01 h -726.75 c -22.81,0 -41.3,-18.49 -41.3,-41.3 v -446.1 c 0,-22.81 18.49,-41.3 41.3,-41.3 h 726.75 c 22.81,0 41.3,18.49 41.3,41.3 v 446.1 c 0,22.81 -18.49,41.3 -41.3,41.3 z m 0,-10 c 17.26,0 31.3,-14.04 31.3,-31.3 v -446.1 c 0,-17.26 -14.04,-31.3 -31.3,-31.3 h -726.75 c -17.26,0 -31.3,14.04 -31.3,31.3 v 446.1 c 0,17.26 14.04,31.3 31.3,31.3 h 726.75"
         style="fill:#100f0d;fill-opacity:1;fill-rule:nonzero;stroke:none"
         transform="matrix(0.13333333,0,0,-0.13333333,0,666.66667)" />
      <path
         id="path82"
         d="m 1743.1,3379.24 -226.61,-142.43 171.09,177.34"
         style="fill:#100f0d;fill-opacity:1;fill-rule:nonzero;stroke:none"
         transform="matrix(0.13333333,0,0,-0.13333333,0,666.66667)" />
      <path
         id="path83"
         d="m 2012.62,3379.24 226.61,-142.43 -171.09,177.34"
         style="fill:#100f0d;fill-opacity:1;fill-rule:nonzero;stroke:none"
         transform="matrix(0.13333333,0,0,-0.13333333,0,666.66667)" />
      <path
         id="path84"
         d="m 1473.19,3548.87 404.68,-254.3 404.67,254.3"
         style="fill:#ffffff;fill-opacity:1;fill-rule:nonzero;stroke:none"
         transform="matrix(0.13333333,0,0,-0.13333333,0,666.66667)" />
      <path
         id="path85"
         d="m 1470.53,3544.64 407.34,-255.97 407.33,255.97 -5.32,8.46 -402.01,-252.62 -402.02,252.62 -5.32,-8.46"
         style="fill:#100f0d;fill-opacity:1;fill-rule:nonzero;stroke:none"
         transform="matrix(0.13333333,0,0,-0.13333333,0,666.66667)" />
      <path
         id="path86"
         d="m 2000,3078.3 h -192.3 c -3.96,10.59 9.22,18.6 54.63,69.3 33.09,36.95 17.34,74.69 -15.87,73.19 -18.35,-0.83 -33.67,-26.72 -42.33,-34.39 -24.22,-21.64 -55.52,-35.26 -68.78,-48.06 -13.17,-12.8 -43.7,-33.2 -43.7,-33.2 l -438.29,-84.43 -65.15,202.28 -238.511,-70.45 c 63.471,-330.62 224.081,-344.04 329.771,-321.5 157.14,33.51 464.65,153.27 464.65,153.27 0,0 96,21.28 140.84,24.26 52.51,3.5 78.77,12.35 117.57,29.98 24.42,11.1 9.11,38.51 -2.53,39.75"
         style="fill:#941b1f;fill-opacity:1;fill-rule:nonzero;stroke:none"
         transform="matrix(0.13333333,0,0,-0.13333333,0,666.66667)" />
      <path
         id="path87"
         d="m 1193.5,3206.69 -235.125,-94.77 c -3.039,12.98 -5.984,26.52 -8.656,40.61 l 238.531,70.46 5.25,-16.3"
         style="fill:#100f0d;fill-opacity:1;fill-rule:nonzero;stroke:none"
         transform="matrix(0.13333333,0,0,-0.13333333,0,666.66667)" />
      <path
         id="path88"
         d="m 1789.65,2702.45 -652.14,-124.51 c 6.53,39.32 15.74,59.12 15.74,59.12 l 632.34,74.97 c 0,0 1.39,-3.31 4.06,-9.58"
         style="fill:#100f0d;fill-opacity:1;fill-rule:nonzero;stroke:none"
         transform="matrix(0.13333333,0,0,-0.13333333,0,666.66667)" />
      <path
         id="path89"
         d="m 1193.36,3461.02 c -0.01,-0.1 -1.27,-16.57 -1.27,-42.15 0.03,-46.65 4.13,-123.49 28.03,-186.92 0.98,-2.58 3.86,-3.88 6.45,-2.91 2.58,0.98 3.88,3.86 2.91,6.45 -23.17,61.29 -27.41,137.36 -27.39,183.38 0,12.63 0.31,22.99 0.63,30.2 0.31,7.2 0.61,11.17 0.61,11.18 0.21,2.75 -1.85,5.16 -4.6,5.37 -2.75,0.21 -5.16,-1.85 -5.37,-4.6"
         style="fill:#100f0d;fill-opacity:1;fill-rule:nonzero;stroke:none"
         transform="matrix(0.13333333,0,0,-0.13333333,0,666.66667)" />
      <path
         id="path90"
         d="m 1288.85,2636.46 100.16,-820.78 -236,-760.1 c -0.82,-2.64 0.65,-5.44 3.29,-6.26 2.64,-0.82 5.44,0.65 6.26,3.29 l 236.32,761.13 0.19,2.09 -100.29,821.84 c -0.34,2.74 -2.83,4.69 -5.57,4.36 -2.74,-0.34 -4.69,-2.83 -4.36,-5.57"
         style="fill:#100f0d;fill-opacity:1;fill-rule:nonzero;stroke:none"
         transform="matrix(0.13333333,0,0,-0.13333333,0,666.66667)" />
      <path
         id="path91"
         d="m 1656.35,2193.48 240.95,-380.17 159.71,-760.24 c 0.57,-2.71 3.22,-4.44 5.92,-3.87 2.71,0.57 4.44,3.22 3.87,5.92 l -159.9,761.13 -0.67,1.65 -241.43,380.93 c -1.48,2.34 -4.57,3.03 -6.9,1.55 -2.34,-1.48 -3.03,-4.57 -1.55,-6.9"
         style="fill:#100f0d;fill-opacity:1;fill-rule:nonzero;stroke:none"
         transform="matrix(0.13333333,0,0,-0.13333333,0,666.66667)" />
      <path
         id="path92"
         d="m 2112.41,3635.49 0.4,0.53 c 12.7,14.98 43.02,11.32 56.19,-4.94 l 0.9,1.17 c 18.95,22.37 73.07,8.27 53.84,-40.3 -8.34,-21.08 -35.15,-73.41 -67.71,-49.24 -5.21,3.87 -7.73,10 -8.84,16.86 -8.42,-21.12 -38.84,-40.96 -59.26,-28.38 -7.29,4.49 -7.77,15.91 -6.56,27.56 -12.46,-12.43 -26.65,-19.21 -39.51,-8.5 -22.76,18.95 1.53,74.98 13.86,89.54 13.35,15.75 45.29,12.93 56.69,-4.3"
         style="fill:#941b1f;fill-opacity:1;fill-rule:nonzero;stroke:none"
         transform="matrix(0.13333333,0,0,-0.13333333,0,666.66667)" />
      <path
         id="path93"
         d="m 2085.04,3563.83 c 0,0.01 0.46,1.91 1.48,5.39 3.06,10.43 11.04,34.73 25.7,61.27 0.61,1.11 0.21,2.5 -0.9,3.12 -1.11,0.61 -2.51,0.21 -3.12,-0.9 -19.85,-35.95 -27.59,-67.67 -27.62,-67.79 -0.3,-1.23 0.45,-2.47 1.68,-2.78 1.24,-0.3 2.48,0.46 2.78,1.69"
         style="fill:#100f0d;fill-opacity:1;fill-rule:nonzero;stroke:none"
         transform="matrix(0.13333333,0,0,-0.13333333,0,666.66667)" />
      <path
         id="path94"
         d="m 2149.69,3563.51 c 0,0.01 0.39,2.01 1.2,5.56 2.43,10.64 8.56,34.92 18.62,58.18 0.51,1.16 -0.03,2.51 -1.19,3.02 -1.17,0.5 -2.52,-0.03 -3.02,-1.2 -13.65,-31.58 -20.1,-64.59 -20.12,-64.68 -0.24,-1.24 0.57,-2.45 1.81,-2.69 1.25,-0.25 2.46,0.57 2.7,1.81"
         style="fill:#100f0d;fill-opacity:1;fill-rule:nonzero;stroke:none"
         transform="matrix(0.13333333,0,0,-0.13333333,0,666.66667)" />
      <path
         id="path95"
         d="M 745.262,720.68 H 3098.22 c 2.07,0 3.75,1.679 3.75,3.75 0,2.07 -1.68,3.75 -3.75,3.75 H 745.262 c -2.071,0 -3.75,-1.68 -3.75,-3.75 0,-2.071 1.679,-3.75 3.75,-3.75"
         style="fill:#100f0d;fill-opacity:1;fill-rule:nonzero;stroke:none"
         transform="matrix(0.13333333,0,0,-0.13333333,0,666.66667)" />
      <path
         id="path96"
         d="M 661.488,728.18 H 328.297 c -2.07,0 -3.75,-1.68 -3.75,-3.75 0,-2.071 1.68,-3.75 3.75,-3.75 h 333.191 c 2.071,0 3.75,1.679 3.75,3.75 0,2.07 -1.679,3.75 -3.75,3.75"
         style="fill:#100f0d;fill-opacity:1;fill-rule:nonzero;stroke:none"
         transform="matrix(0.13333333,0,0,-0.13333333,0,666.66667)" />
      <path
         id="path97"
         d="m 5522.04,2524.69 c -67.78,56.21 -133.8,-13.57 -133.8,-13.57 0,0 -25.47,92.63 -111.72,74.88 -64.2,-13.22 -87.46,-92.38 -54.66,-162.13 38.37,-81.58 104.75,-159.54 104.75,-159.54 0,0 95.24,37.6 167.46,91.57 61.74,46.14 78.43,126.94 27.97,168.79"
         style="fill:#ec2835;fill-opacity:1;fill-rule:nonzero;stroke:none"
         transform="matrix(0.13333333,0,0,-0.13333333,0,666.66667)" />
      <path
         id="path98"
         d="m 975.223,2320.16 c -75.813,3.78 -85.336,-78.49 -85.336,-78.49 0,0 -65.43,50.77 -115.782,-6.03 -37.488,-42.29 -12.644,-108.94 46.028,-140.13 68.621,-36.49 154.711,-56 154.711,-56 0,0 46.306,75.15 68.266,149.7 18.78,63.75 -11.45,128.13 -67.887,130.95"
         style="fill:#ec2835;fill-opacity:1;fill-rule:nonzero;stroke:none"
         transform="matrix(0.13333333,0,0,-0.13333333,0,666.66667)" />
      <path
         id="path99"
         d="m 3092.16,1555.87 c -80.4,71.02 -163.45,-11.45 -163.45,-11.45 0,0 -27.51,113.76 -133.2,95.41 -78.68,-13.66 -110,-109.17 -72.7,-195.35 43.62,-100.8 121.5,-198.24 121.5,-198.24 0,0 117.4,42.17 207.39,105.15 76.93,53.85 100.31,151.61 40.46,204.48"
         style="fill:#ec2835;fill-opacity:1;fill-rule:nonzero;stroke:none"
         transform="matrix(0.13333333,0,0,-0.13333333,0,666.66667)" />
      <path
         id="path100"
         d="m 5240.62,2935.89 c -61.63,3.45 -69.78,-63.4 -69.78,-63.4 0,0 -52.95,41.61 -94.18,-4.33 -30.69,-34.2 -10.82,-88.51 36.73,-114.17 55.62,-30.01 125.52,-46.3 125.52,-46.3 0,0 38.03,60.88 56.26,121.39 15.58,51.73 -8.68,104.24 -54.55,106.81"
         style="fill:#ec2835;fill-opacity:1;fill-rule:nonzero;stroke:none"
         transform="matrix(0.13333333,0,0,-0.13333333,0,666.66667)" />
      <path
         id="path101"
         d="m 3150.7,3932.3 c -61.63,3.45 -69.78,-63.39 -69.78,-63.39 0,0 -52.95,41.6 -94.18,-4.34 -30.69,-34.19 -10.82,-88.51 36.73,-114.17 55.62,-30 125.52,-46.3 125.52,-46.3 0,0 38.03,60.88 56.26,121.39 15.58,51.74 -8.68,104.24 -54.55,106.81"
         style="fill:#ec2835;fill-opacity:1;fill-rule:nonzero;stroke:none"
         transform="matrix(0.13333333,0,0,-0.13333333,0,666.66667)" />
      <path
         id="path102"
         d="m 4254.9,3772 c -168.2,0 -304.5,136.4 -304.5,304.5 0,168.2 136.3,304.6 304.5,304.6 168.2,0 304.5,-136.4 304.5,-304.6 0,-168.1 -136.3,-304.5 -304.5,-304.5 m 0,535.8 c -127.7,0 -231.3,-103.5 -231.3,-231.3 0,-127.7 103.6,-231.2 231.3,-231.2 127.7,0 231.3,103.5 231.3,231.2 0,127.8 -103.6,231.3 -231.3,231.3"
         style="fill:#c5ebf8;fill-opacity:1;fill-rule:nonzero;stroke:none"
         transform="matrix(0.13333333,0,0,-0.13333333,0,666.66667)" />
      <path
         id="path103"
         d="m 461.324,2412.22 c -91.519,0 -165.715,74.2 -165.715,165.72 0,91.52 74.196,165.71 165.715,165.71 91.524,0 165.715,-74.19 165.715,-165.71 0,-91.52 -74.191,-165.72 -165.715,-165.72"
         style="fill:#c5ebf8;fill-opacity:1;fill-rule:nonzero;stroke:none"
         transform="matrix(0.13333333,0,0,-0.13333333,0,666.66667)" />
      <path
         id="path104"
         d="m 843.168,3772.01 c -37.266,0 -67.473,30.21 -67.473,67.48 0,37.26 30.207,67.47 67.473,67.47 37.262,0 67.473,-30.21 67.473,-67.47 0,-37.27 -30.211,-67.48 -67.473,-67.48"
         style="fill:#c5ebf8;fill-opacity:1;fill-rule:nonzero;stroke:none"
         transform="matrix(0.13333333,0,0,-0.13333333,0,666.66667)" />
      <path
         id="path105"
         d="m 4080.02,3912.07 c 10.62,-39.78 -13.02,-80.64 -52.8,-91.26 -39.78,-10.62 -80.64,13.02 -91.26,52.8 -10.62,39.78 13.01,80.64 52.8,91.26 39.78,10.62 80.64,-13.02 91.26,-52.8"
         style="fill:#100f0d;fill-opacity:1;fill-rule:nonzero;stroke:none"
         transform="matrix(0.13333333,0,0,-0.13333333,0,666.66667)" />
      <path
         id="path106"
         d="m 843.168,1571.21 c 0,-30.94 -25.082,-56.02 -56.02,-56.02 -30.937,0 -56.019,25.08 -56.019,56.02 0,30.94 25.082,56.02 56.019,56.02 30.938,0 56.02,-25.08 56.02,-56.02"
         style="fill:#100f0d;fill-opacity:1;fill-rule:nonzero;stroke:none"
         transform="matrix(0.13333333,0,0,-0.13333333,0,666.66667)" />
      <path
         id="path107"
         d="m 3537.12,4317.25 h -3.75 c -0.01,-28.77 -11.65,-54.78 -30.51,-73.64 -18.85,-18.85 -44.86,-30.5 -73.63,-30.5 -28.77,0 -54.78,11.65 -73.64,30.5 -18.85,18.86 -30.5,44.87 -30.5,73.64 0,28.77 11.65,54.79 30.5,73.64 18.86,18.85 44.87,30.5 73.64,30.5 28.77,0 54.78,-11.65 73.63,-30.5 18.86,-18.85 30.5,-44.87 30.51,-73.64 h 3.75 3.75 c -0.01,61.66 -49.98,111.64 -111.64,111.64 -61.66,0 -111.64,-49.98 -111.64,-111.64 0,-61.66 49.98,-111.63 111.64,-111.64 61.66,0.01 111.63,49.98 111.64,111.64 h -3.75"
         style="fill:#100f0d;fill-opacity:1;fill-rule:nonzero;stroke:none"
         transform="matrix(0.13333333,0,0,-0.13333333,0,666.66667)" />
      <path
         id="path108"
         d="m 5328.85,907.91 h -3.75 c 0,-16.078 -6.51,-30.609 -17.05,-41.148 -10.54,-10.543 -25.07,-17.051 -41.16,-17.051 -16.08,0 -30.61,6.508 -41.15,17.051 -10.54,10.539 -17.05,25.07 -17.05,41.148 0,16.09 6.51,30.621 17.05,41.16 10.54,10.539 25.07,17.051 41.15,17.051 16.09,0 30.62,-6.512 41.16,-17.051 10.54,-10.539 17.05,-25.07 17.05,-41.16 h 3.75 3.75 c 0,36.289 -29.42,65.711 -65.71,65.711 -36.29,0 -65.7,-29.422 -65.7,-65.711 0,-36.289 29.41,-65.699 65.7,-65.699 36.29,0 65.71,29.41 65.71,65.699 h -3.75"
         style="fill:#100f0d;fill-opacity:1;fill-rule:nonzero;stroke:none"
         transform="matrix(0.13333333,0,0,-0.13333333,0,666.66667)" />
      <path
         id="path109"
         d="m 2186.09,454.039 -59.65,59.66 59.65,59.653 -29.93,29.929 -59.65,-59.66 -59.66,59.66 -29.92,-29.929 59.65,-59.653 -59.66,-59.66 29.93,-29.93 59.66,59.661 59.65,-59.661 29.93,29.93"
         style="fill:#100f0d;fill-opacity:1;fill-rule:nonzero;stroke:none"
         transform="matrix(0.13333333,0,0,-0.13333333,0,666.66667)" />
      <path
         id="path110"
         d="m 5594.2,1314.53 -106.02,106.02 106.02,106.01 -53.19,53.19 -106.02,-106.01 -106.01,106.01 -53.19,-53.19 106.01,-106.01 -106.01,-106.02 53.19,-53.18 106.01,106.01 106.02,-106.01 53.19,53.18"
         style="fill:#100f0d;fill-opacity:1;fill-rule:nonzero;stroke:none"
         transform="matrix(0.13333333,0,0,-0.13333333,0,666.66667)" />
      <path
         id="path111"
         d="m 2849.44,3234.01 -121.64,121.65 121.64,121.64 -61.03,61.04 -121.65,-121.65 -121.64,121.64 -61.03,-61.03 121.64,-121.64 -121.64,-121.65 61.03,-61.03 121.64,121.64 121.65,-121.64 61.03,61.03"
         style="fill:#fab735;fill-opacity:1;fill-rule:nonzero;stroke:none"
         transform="matrix(0.13333333,0,0,-0.13333333,0,666.66667)" />
      <path
         id="path112"
         d="m 1857.29,454.039 -59.66,59.66 59.66,59.653 -29.93,29.929 -59.65,-59.66 -59.66,59.66 -29.93,-29.929 59.66,-59.653 -59.66,-59.66 29.93,-29.93 59.66,59.661 59.65,-59.661 29.93,29.93"
         style="fill:#100f0d;fill-opacity:1;fill-rule:nonzero;stroke:none"
         transform="matrix(0.13333333,0,0,-0.13333333,0,666.66667)" />
      <path
         id="path113"
         d="m 1528.49,454.039 -59.66,59.66 59.66,59.653 -29.93,29.929 -59.66,-59.66 -59.65,59.66 -29.93,-29.929 59.65,-59.653 -59.65,-59.66 29.93,-29.93 59.65,59.661 59.66,-59.661 29.93,29.93"
         style="fill:#100f0d;fill-opacity:1;fill-rule:nonzero;stroke:none"
         transform="matrix(0.13333333,0,0,-0.13333333,0,666.66667)" />
      <path
         id="path114"
         d="m 3646.45,527.789 c -1.66,-16.207 -3.78,-28.187 -3.78,-28.187 h -548.9 c 0,0 -4.79,12.25 -1.75,28.187 2.21,12.711 9.39,27.723 27.72,40.609 70.18,49.551 349.42,128.75 349.42,128.75 l 173.97,-98.816 c 6.91,-17.402 5.62,-47.98 3.32,-70.543"
         style="fill:#100f0d;fill-opacity:1;fill-rule:nonzero;stroke:none"
         transform="matrix(0.13333333,0,0,-0.13333333,0,666.66667)" />
      <path
         id="path115"
         d="m 3646.45,527.789 c 4.13,-11.879 0,-28.187 0,-28.187 h -556.83 c 0,0 -6.76,16.308 2.4,28.187 h 554.43"
         style="fill:#ec78c2;fill-opacity:1;fill-rule:nonzero;stroke:none"
         transform="matrix(0.13333333,0,0,-0.13333333,0,666.66667)" />
      <path
         id="path116"
         d="m 3315.85,648.879 0.52,-1.02 c 2.44,-4.839 13.01,-26.41 22.15,-54.859 0.85,-2.629 3.66,-4.07 6.29,-3.23 2.63,0.851 4.08,3.66 3.23,6.289 -10.71,33.339 -23.25,57.293 -23.33,57.453 -1.28,2.449 -4.3,3.398 -6.75,2.117 -2.45,-1.277 -3.39,-4.297 -2.11,-6.75"
         style="fill:#ec78c2;fill-opacity:1;fill-rule:nonzero;stroke:none"
         transform="matrix(0.13333333,0,0,-0.13333333,0,666.66667)" />
      <path
         id="path117"
         d="m 3380.25,669.68 c 0,0 0.74,-1.532 2.05,-4.399 3.94,-8.621 12.84,-29.019 20.69,-53.441 0.84,-2.629 3.66,-4.078 6.29,-3.231 2.63,0.84 4.07,3.661 3.23,6.289 -10.7,33.282 -23.21,59.024 -23.27,59.153 -1.21,2.48 -4.2,3.519 -6.68,2.308 -2.49,-1.199 -3.52,-4.199 -2.31,-6.679"
         style="fill:#ec78c2;fill-opacity:1;fill-rule:nonzero;stroke:none"
         transform="matrix(0.13333333,0,0,-0.13333333,0,666.66667)" />
      <path
         id="path118"
         d="m 3469.16,697.148 53.99,195.141 203.04,-64.66 -83.06,-229.297 -173.97,98.816"
         style="fill:#eb4d2b;fill-opacity:1;fill-rule:nonzero;stroke:none"
         transform="matrix(0.13333333,0,0,-0.13333333,0,666.66667)" />
      <path
         id="path119"
         d="m 3726.18,827.629 -27.08,-74.789 -192.48,79.762 16.48,59.679 203.08,-64.652"
         style="fill:#100f0d;fill-opacity:1;fill-rule:nonzero;stroke:none"
         transform="matrix(0.13333333,0,0,-0.13333333,0,666.66667)" />
      <path
         id="path120"
         d="m 3746.41,1199.52 c 4.08,-15.77 6.26,-27.74 6.26,-27.74 L 3238.02,980.91 c 0,0 -8.75,9.82 -11.44,25.82 -2.35,12.68 -0.83,29.25 11.87,47.72 48.57,70.85 282.84,242.22 282.84,242.22 l 197.48,-32.16 c 12.53,-13.92 21.95,-43.03 27.64,-64.99"
         style="fill:#100f0d;fill-opacity:1;fill-rule:nonzero;stroke:none"
         transform="matrix(0.13333333,0,0,-0.13333333,0,666.66667)" />
      <path
         id="path121"
         d="m 3746.41,1199.52 c 8.01,-9.7 9.8,-26.42 9.8,-26.42 L 3234.13,979.469 c 0,0 -12,12.929 -7.55,27.261 l 519.83,192.79"
         style="fill:#ec78c2;fill-opacity:1;fill-rule:nonzero;stroke:none"
         transform="matrix(0.13333333,0,0,-0.13333333,0,666.66667)" />
      <path
         id="path122"
         d="m 3394.33,1198.09 0.85,-0.77 c 3.97,-3.68 21.38,-20.24 39.84,-43.73 1.71,-2.17 4.85,-2.55 7.02,-0.84 2.17,1.71 2.55,4.85 0.85,7.02 -21.64,27.53 -41.72,45.63 -41.86,45.75 -2.05,1.85 -5.21,1.69 -7.06,-0.36 -1.85,-2.06 -1.69,-5.22 0.36,-7.07"
         style="fill:#ec78c2;fill-opacity:1;fill-rule:nonzero;stroke:none"
         transform="matrix(0.13333333,0,0,-0.13333333,0,666.66667)" />
      <path
         id="path123"
         d="m 3447.48,1239.99 c 0,0 1.23,-1.18 3.46,-3.41 6.68,-6.71 22.13,-22.75 37.97,-42.91 1.71,-2.17 4.85,-2.55 7.03,-0.84 2.17,1.7 2.54,4.85 0.84,7.02 -21.61,27.48 -42.28,47.26 -42.39,47.37 -1.99,1.9 -5.16,1.84 -7.07,-0.16 -1.91,-1.99 -1.84,-5.16 0.16,-7.07"
         style="fill:#ec78c2;fill-opacity:1;fill-rule:nonzero;stroke:none"
         transform="matrix(0.13333333,0,0,-0.13333333,0,666.66667)" />
      <path
         id="path124"
         d="m 3521.29,1296.67 -17.24,201.73 212.86,9.98 1.86,-243.87 -197.48,32.16"
         style="fill:#eb4d2b;fill-opacity:1;fill-rule:nonzero;stroke:none"
         transform="matrix(0.13333333,0,0,-0.13333333,0,666.66667)" />
      <path
         id="path125"
         d="m 3717.61,1420.55 -207.58,7.18 -5.99,70.64 212.84,10.04 0.73,-87.86"
         style="fill:#100f0d;fill-opacity:1;fill-rule:nonzero;stroke:none"
         transform="matrix(0.13333333,0,0,-0.13333333,0,666.66667)" />
      <path
         id="path126"
         d="M 4878.91,1025.15 H 3937.1 v 93.47 h 941.81 v -93.47"
         style="fill:#941b1f;fill-opacity:1;fill-rule:nonzero;stroke:none"
         transform="matrix(0.13333333,0,0,-0.13333333,0,666.66667)" />
      <path
         id="path127"
         d="M 5011.88,499.602 H 4906.56 L 4745.95,1737.63 h 105.31 L 5011.88,499.602"
         style="fill:#941b1f;fill-opacity:1;fill-rule:nonzero;stroke:none"
         transform="matrix(0.13333333,0,0,-0.13333333,0,666.66667)" />
      <path
         id="path128"
         d="m 4856.12,1699.97 h -105.27 l -4.88,37.67 h 105.27 l 4.88,-37.67"
         style="fill:#100f0d;fill-opacity:1;fill-rule:nonzero;stroke:none"
         transform="matrix(0.13333333,0,0,-0.13333333,0,666.66667)" />
      <path
         id="path129"
         d="m 3804.13,499.602 h 105.32 L 4070.06,1737.63 H 3964.75 L 3804.13,499.602"
         style="fill:#941b1f;fill-opacity:1;fill-rule:nonzero;stroke:none"
         transform="matrix(0.13333333,0,0,-0.13333333,0,666.66667)" />
      <path
         id="path130"
         d="m 3890.59,1836.39 h 1034.83 v -98.76 H 3890.59 v 98.76"
         style="fill:#941b1f;fill-opacity:1;fill-rule:nonzero;stroke:none"
         transform="matrix(0.13333333,0,0,-0.13333333,0,666.66667)" />
      <path
         id="path131"
         d="m 4208.77,1878.73 -437.56,155.56 c 28,-78.19 10.87,-324.92 2.03,-554.52 l -283.57,-35.74 c -21.92,220.02 -73.31,734.85 -89.79,901.64 -19.53,197.91 172.59,210.62 243.13,189.07 288.82,-88.13 1249.95,-372.62 1249.95,-372.62 l -684.19,-283.39"
         style="fill:#ec78c2;fill-opacity:1;fill-rule:nonzero;stroke:none"
         transform="matrix(0.13333333,0,0,-0.13333333,0,666.66667)" />
      <path
         id="path132"
         d="m 3784.94,1768.95 c -2.58,-89.88 -7.92,-191.1 -11.7,-289.18 l -171.95,-21.65 c 38.59,107.57 77.92,211.92 91.37,231.26 22.65,32.7 71.37,66.13 92.28,79.57"
         style="fill:#100f0d;fill-opacity:1;fill-rule:nonzero;stroke:none"
         transform="matrix(0.13333333,0,0,-0.13333333,0,666.66667)" />
      <path
         id="path133"
         d="m 4300.7,2240.3 c 0,0 -482.46,-435.66 -561.05,-543.23 -41.27,-56.48 -239.85,-844.75 -239.85,-844.75 l 285.03,-85.5 c 0,0 313.45,584.59 285.23,729.2 l 565.48,340.37 h 211.63 c 0,0 103.55,203.01 45.77,325.69 l -592.24,78.22"
         style="fill:#ec78c2;fill-opacity:1;fill-rule:nonzero;stroke:none"
         transform="matrix(0.13333333,0,0,-0.13333333,0,666.66667)" />
      <path
         id="path134"
         d="m 4847.19,1836.37 h -211.64 l -565.48,-340.39 c 28.18,-144.6 -285.23,-729.14 -285.23,-729.14 l -285.04,85.469 c 0,0 198.56,788.261 239.82,844.721 71.93,98.45 481.49,471.17 551.02,534.16 6.54,5.89 10.04,9.12 10.04,9.12 l 592.28,-78.19 c 11.24,-23.86 16.39,-50.84 17.22,-78.75 4.15,-115.3 -62.99,-247 -62.99,-247"
         style="fill:#ec78c2;fill-opacity:1;fill-rule:nonzero;stroke:none"
         transform="matrix(0.13333333,0,0,-0.13333333,0,666.66667)" />
      <path
         id="path135"
         d="m 3327.85,2865.14 c 0,0 358.01,-88.18 410.91,-101.12 55.73,67.12 105.82,131.19 105.82,131.19 l 191.43,-151.78 c 0,0 -147.2,-188.09 -234.05,-211.02 -86.85,-22.93 -558.76,226.91 -558.76,226.91 l 84.65,105.82"
         style="fill:#100f0d;fill-opacity:1;fill-rule:nonzero;stroke:none"
         transform="matrix(0.13333333,0,0,-0.13333333,0,666.66667)" />
      <path
         id="path136"
         d="m 4975.02,2925.39 c -9.11,79.66 -50.29,134.95 -50.29,134.95 -91.91,147.27 -349.51,147.82 -349.51,147.82 l -152.69,-153.8 -65.67,161.44 c 0,0 -257.5,30.95 -355.86,-93.38 -38.04,-47.99 -109.41,-148 -162,-222.79 l 248.76,-197.23 95.42,99.54 c 38.41,-144.87 -12.08,-544.5 -12.08,-544.5 l 749.3,-99.01 c 0,0 40.19,367.6 38.86,638.06 9.61,30.03 21.42,79.46 15.76,128.9"
         style="fill:#505bb3;fill-opacity:1;fill-rule:nonzero;stroke:none"
         transform="matrix(0.13333333,0,0,-0.13333333,0,666.66667)" />
      <path
         id="path137"
         d="m 3502.91,2956.06 -124.54,-20.84 7.46,-160.47 124.53,20.84 z m 201.27,33.68 7.45,-160.47 152.22,25.47 31.34,-187.29 -176.12,-29.47 7.25,-174.63 -201.27,-33.68 -7.24,174.63 -124.54,-20.84 7.24,-174.63 -201.27,-33.68 -7.24,174.63 -152.21,-25.47 -31.34,187.28 176.11,29.47 -7.46,160.48 -152.21,-25.47 -31.34,187.28 176.11,29.47 -7.24,174.63 201.27,33.68 7.24,-174.63 124.54,20.84 -7.24,174.63 201.27,33.69 7.24,-174.63 152.21,25.47 31.34,-187.28 -176.11,-29.48"
         style="fill:#66c5ef;fill-opacity:1;fill-rule:nonzero;stroke:none"
         transform="matrix(0.13333333,0,0,-0.13333333,0,666.66667)" />
      <path
         id="path138"
         d="m 4790.73,2642.96 c 0,0 -203.16,-179.78 -325.38,-157.58 -228.4,41.44 -367.28,65.85 -524.03,94.67 -30.67,5.62 -65.21,4.7 -86.76,5.53 -41.44,1.75 -94.03,14.09 -134.46,26.99 l -1.01,25.41 119.91,20.08 c 0,0 18.08,2.93 24.1,9.26 8.33,8.77 4.81,17.29 -6.47,19.7 -15.29,3.31 -50.42,20.96 -68.29,39.93 -15.74,16.76 -1.1,35.37 14.83,33.34 28.64,-3.78 55.09,-6.2 76.09,-13.02 32.6,-10.59 89.65,-53.35 89.65,-53.35 0,0 427.28,2.45 485.76,-5.1 20.81,18.42 127.92,123.41 127.92,123.41 l 208.14,-169.27"
         style="fill:#eb4d2b;fill-opacity:1;fill-rule:nonzero;stroke:none"
         transform="matrix(0.13333333,0,0,-0.13333333,0,666.66667)" />
      <path
         id="path139"
         d="m 4790.73,2642.96 c 0,0 -23.11,-20.54 -58.57,-46.79 l -163.38,202.52 c 8.47,8.29 13.81,13.54 13.81,13.54 l 208.14,-169.27"
         style="fill:#100f0d;fill-opacity:1;fill-rule:nonzero;stroke:none"
         transform="matrix(0.13333333,0,0,-0.13333333,0,666.66667)" />
      <path
         id="path140"
         d="m 4579.59,2821.34 c 0.07,0.07 84.77,88.28 145.01,168.58 1.66,2.21 1.21,5.35 -1,7 -2.21,1.66 -5.34,1.21 -7,-1 -29.84,-39.78 -65.92,-81.73 -94.52,-113.71 -14.3,-15.98 -26.73,-29.48 -35.59,-38.98 -8.85,-9.49 -14.1,-14.95 -14.11,-14.97 -1.91,-1.99 -1.85,-5.16 0.14,-7.07 2,-1.91 5.16,-1.85 7.07,0.14"
         style="fill:#100f0d;fill-opacity:1;fill-rule:nonzero;stroke:none"
         transform="matrix(0.13333333,0,0,-0.13333333,0,666.66667)" />
      <path
         id="path141"
         d="m 4827.18,2618.24 c 0,0 81.12,73.48 114.04,134.61 0,0 -27.04,-91.7 -82.3,-164.59 l -31.74,29.98"
         style="fill:#100f0d;fill-opacity:1;fill-rule:nonzero;stroke:none"
         transform="matrix(0.13333333,0,0,-0.13333333,0,666.66667)" />
      <path
         id="path142"
         d="m 3910.2,1984.84 375.75,242.1 -293.09,-271.48 z"
         style="fill:#100f0d;fill-opacity:1;fill-rule:nonzero;stroke:none"
         transform="matrix(0.13333333,0,0,-0.13333333,0,666.66667)" />
      <path
         id="path143"
         d="m 4131.96,2748.5 c 25.65,46.83 -45.5,150.12 -11.42,146.62 34.17,-3.5 62.63,-93.2 62.63,-93.2 l -51.21,-53.42"
         style="fill:#100f0d;fill-opacity:1;fill-rule:nonzero;stroke:none"
         transform="matrix(0.13333333,0,0,-0.13333333,0,666.66667)" />
      <path
         id="path144"
         d="m 4910.18,2083.37 -619.54,147.82 c 6.54,5.89 10.04,9.12 10.04,9.12 l 592.28,-78.19 c 11.24,-23.86 16.39,-50.84 17.22,-78.75"
         style="fill:#100f0d;fill-opacity:1;fill-rule:nonzero;stroke:none"
         transform="matrix(0.13333333,0,0,-0.13333333,0,666.66667)" />
      <path
         id="path145"
         d="m 3639.9,2295.89 c 45.35,-48.82 74.29,-109.68 91.81,-158.32 8.76,-24.32 14.68,-45.58 18.4,-60.74 1.86,-7.58 3.18,-13.64 4.02,-17.79 0.85,-4.15 1.21,-6.35 1.22,-6.36 0.31,-1.85 1.94,-3.18 3.82,-3.12 1.88,0.06 3.42,1.5 3.61,3.37 0.01,0.09 2.22,22.13 2.22,54.39 -0.03,47.71 -4.77,117.74 -28.98,172.65 -0.83,1.89 -3.05,2.75 -4.94,1.92 -1.9,-0.84 -2.76,-3.05 -1.92,-4.95 23.48,-53.09 28.36,-122.44 28.34,-169.62 0,-15.96 -0.55,-29.39 -1.1,-38.82 -0.54,-9.44 -1.09,-14.8 -1.09,-14.82 l 3.74,-0.37 3.69,0.62 c -0.11,0.31 -24.69,147.16 -117.34,247.06 -1.41,1.52 -3.78,1.61 -5.3,0.2 -1.52,-1.41 -1.61,-3.78 -0.2,-5.3"
         style="fill:#100f0d;fill-opacity:1;fill-rule:nonzero;stroke:none"
         transform="matrix(0.13333333,0,0,-0.13333333,0,666.66667)" />
      <path
         id="path146"
         d="m 3944.58,1635.69 c 0,0 1.25,-0.78 3.58,-2.37 16.39,-11.05 84.14,-60.54 111.31,-131.11 0.74,-1.94 2.92,-2.9 4.85,-2.15 1.93,0.75 2.89,2.92 2.14,4.85 -32.45,83.71 -117.65,136.9 -117.9,137.14 -1.75,1.1 -4.07,0.57 -5.17,-1.19 -1.1,-1.75 -0.57,-4.07 1.19,-5.17"
         style="fill:#100f0d;fill-opacity:1;fill-rule:nonzero;stroke:none"
         transform="matrix(0.13333333,0,0,-0.13333333,0,666.66667)" />
      <path
         id="path147"
         d="m 3120.17,2804.24 -0.43,0.5 c -11.91,15.63 -1.81,44.44 16.9,53.82 l -0.96,1.13 c -17.77,23.32 11.86,72.91 50.93,43.93 18.21,-13.51 59.7,-55.61 33.54,-76.71 -5.05,-4.07 -11.43,-5.4 -18.36,-5.01 18.89,-22.86 34.08,-50.78 14.99,-63.97 -7.05,-4.88 -17.22,-4.18 -28.34,-0.5 9.47,-14.83 13.05,-30.15 -0.18,-40.41 -23.4,-18.15 -72.9,17.61 -84.47,32.78 -12.51,16.42 -2.89,47.01 16.38,54.44"
         style="fill:#eb4d2b;fill-opacity:1;fill-rule:nonzero;stroke:none"
         transform="matrix(0.13333333,0,0,-0.13333333,0,666.66667)" />
      <path
         id="path148"
         d="m 3184.27,2762.11 c 0,0 -1.76,0.87 -4.94,2.61 -9.53,5.22 -31.54,18.23 -54.32,38.26 -0.95,0.83 -2.4,0.74 -3.24,-0.21 -0.84,-0.95 -0.74,-2.41 0.21,-3.24 30.84,-27.11 60.16,-41.48 60.27,-41.54 1.14,-0.56 2.52,-0.09 3.07,1.05 0.56,1.14 0.09,2.51 -1.05,3.07"
         style="fill:#100f0d;fill-opacity:1;fill-rule:nonzero;stroke:none"
         transform="matrix(0.13333333,0,0,-0.13333333,0,666.66667)" />
      <path
         id="path149"
         d="m 3198.48,2825.18 c -0.01,0.01 -1.89,0.82 -5.18,2.37 -9.87,4.66 -32.26,15.87 -52.81,30.69 -1.03,0.74 -2.47,0.51 -3.21,-0.52 -0.74,-1.03 -0.51,-2.46 0.52,-3.21 27.91,-20.11 58.77,-33.5 58.85,-33.54 1.16,-0.5 2.51,0.03 3.02,1.19 0.5,1.17 -0.03,2.52 -1.19,3.02"
         style="fill:#100f0d;fill-opacity:1;fill-rule:nonzero;stroke:none"
         transform="matrix(0.13333333,0,0,-0.13333333,0,666.66667)" />
      <path
         id="path150"
         d="m 3703.21,815.391 c 0.01,0.031 3.97,11.308 11.02,31.218 24.64,69.692 86.9,244.671 148.12,408.081 30.61,81.71 60.95,160.53 86.19,221.82 12.61,30.64 23.95,56.9 33.38,76.89 4.71,10 8.94,18.43 12.59,25.02 3.63,6.57 6.76,11.36 8.88,13.78 5.25,6.09 17.81,16.53 35.43,29.54 61.79,45.74 186.68,125.18 304.11,198.43 117.48,73.28 227.47,140.37 260.23,161.95 77.37,50.95 118.14,91.38 139.7,120.72 21.56,29.32 23.86,47.71 23.85,54.01 0,1.3 -0.1,2.07 -0.13,2.3 -0.4,2.74 -2.93,4.63 -5.67,4.23 -2.73,-0.4 -4.62,-2.93 -4.23,-5.67 l 2.17,0.32 -2.18,-0.24 0.01,-0.08 2.17,0.32 -2.18,-0.24 0.04,-0.94 c -0.01,-3.88 -1.33,-20.04 -21.91,-48.09 -20.57,-28.02 -60.44,-67.79 -137.14,-118.29 -37,-24.38 -175.59,-108.66 -310.63,-193.49 -67.54,-42.43 -134.23,-85.02 -187.01,-120.41 -26.39,-17.69 -49.31,-33.59 -67.15,-46.79 -17.88,-13.26 -30.56,-23.62 -37.03,-31.02 -3.42,-3.97 -7.2,-10.12 -11.74,-18.55 -16.88,-31.48 -43.29,-94.52 -73.64,-171.75 -90.99,-231.57 -216.67,-589.73 -216.68,-589.761 -0.92,-2.597 0.45,-5.457 3.06,-6.367 2.61,-0.922 5.46,0.457 6.37,3.059"
         style="fill:#100f0d;fill-opacity:1;fill-rule:nonzero;stroke:none"
         transform="matrix(0.13333333,0,0,-0.13333333,0,666.66667)" />
      <path
         id="path151"
         d="m 4614.98,2181.41 c -0.2,-0.16 -20.59,-14.8 -41.12,-39.11 -20.47,-24.29 -41.34,-58.39 -41.39,-97.75 -0.03,-25.85 9.22,-53.69 32.98,-81.36 1.79,-2.1 4.95,-2.34 7.05,-0.54 2.09,1.79 2.34,4.95 0.54,7.05 -22.42,26.2 -30.54,51.39 -30.57,74.85 -0.06,35.65 19.29,67.95 39.03,91.3 9.85,11.67 19.73,21.07 27.12,27.53 3.7,3.23 6.78,5.72 8.91,7.4 1.07,0.84 1.91,1.48 2.47,1.9 l 0.82,0.6 c 2.24,1.62 2.75,4.74 1.14,6.98 -1.61,2.24 -4.73,2.76 -6.97,1.15"
         style="fill:#100f0d;fill-opacity:1;fill-rule:nonzero;stroke:none"
         transform="matrix(0.13333333,0,0,-0.13333333,0,666.66667)" />
      <path
         id="path152"
         d="m 3698.11,1613.54 c 0,163.97 -20.49,553.46 -25.08,654.46 l -4.99,-0.23 0.15,-5 c 1.47,0.04 2.98,0.07 4.54,0.07 30.46,0.02 75.61,-8.34 125.75,-20.97 75.26,-18.94 162.03,-47.42 229.93,-71.15 33.95,-11.87 63.19,-22.55 83.94,-30.27 10.37,-3.85 18.62,-6.97 24.27,-9.12 5.66,-2.14 8.7,-3.32 8.71,-3.33 2.57,-0.99 5.47,0.29 6.47,2.86 0.99,2.58 -0.28,5.47 -2.86,6.47 -0.05,0.02 -87.39,33.83 -190.47,67.67 -51.55,16.92 -107.03,33.85 -157.55,46.56 -50.56,12.71 -96.03,21.25 -128.19,21.28 -1.65,0 -3.26,-0.03 -4.84,-0.07 -1.33,-0.04 -2.61,-0.62 -3.52,-1.6 -0.9,-0.98 -1.39,-2.29 -1.33,-3.63 4.6,-101.01 25.08,-490.61 25.07,-654 0,-2.76 2.24,-5 5,-5 2.77,0 5,2.24 5,5"
         style="fill:#100f0d;fill-opacity:1;fill-rule:nonzero;stroke:none"
         transform="matrix(0.13333333,0,0,-0.13333333,0,666.66667)" />
      <path
         id="path153"
         d="m 4826.25,1118.62 12.13,-93.47 h -62.64 l 27.34,93.47 h 23.17"
         style="fill:#100f0d;fill-opacity:1;fill-rule:nonzero;stroke:none"
         transform="matrix(0.13333333,0,0,-0.13333333,0,666.66667)" />
      <path
         id="path154"
         d="m 3989.85,1118.62 -12.12,-93.47 h 62.63 l -27.33,93.47 h -23.18"
         style="fill:#100f0d;fill-opacity:1;fill-rule:nonzero;stroke:none"
         transform="matrix(0.13333333,0,0,-0.13333333,0,666.66667)" />
      <path
         id="path155"
         d="m 4669.18,3482.5 c 15.07,-83.07 -24.3,-187.67 -137.92,-194.6 -105.06,-6.41 -167.87,117.46 -98.35,231.24 55.44,90.75 214.22,84.83 236.27,-36.64"
         style="fill:#eb4d2b;fill-opacity:1;fill-rule:nonzero;stroke:none"
         transform="matrix(0.13333333,0,0,-0.13333333,0,666.66667)" />
      <path
         id="path156"
         d="m 4680.66,3488.53 0.02,0.02 c 28.68,40.27 -21.04,133.16 -33.97,124.34 -6.16,-4.2 -4.43,-17.58 -0.96,-30.45 -19.77,19.76 -45.69,29.36 -62.24,38.9 -12.92,7.44 -25.62,20.73 -33.06,30.87 -10.96,14.92 -17.57,22.03 -25.5,6.84 -12.39,-23.76 16.44,-58.18 16.59,-58.35 -27.66,12.06 -53.38,25.87 -69.65,47.52 -18.39,24.48 -79.05,-69.31 -42.4,-129.29 71.16,-84.73 198.38,-81.41 198.38,-81.41 l 12.73,-92.77 c 48.29,9.13 112.6,106.07 40.06,143.78"
         style="fill:#100f0d;fill-opacity:1;fill-rule:nonzero;stroke:none"
         transform="matrix(0.13333333,0,0,-0.13333333,0,666.66667)" />
      <path
         id="path157"
         d="m 4491.28,499.602 c 0,0 7.66,300.398 231.7,457.418 0,0 0.48,-204.891 -105.08,-344.68 0,0 118.48,245.109 407.63,283.402 0,0 -101.51,-218.293 -279.58,-292.972 0,0 239.37,63.191 409.79,13.402 0,0 -124.46,-79.942 -332.23,-116.57"
         style="fill:#26b39a;fill-opacity:1;fill-rule:nonzero;stroke:none"
         transform="matrix(0.13333333,0,0,-0.13333333,0,666.66667)" />
      <path
         id="path158"
         d="m 2700.32,495.852 h 2566.57 c 2.08,0 3.75,1.679 3.75,3.75 0,2.078 -1.67,3.75 -3.75,3.75 H 2700.32 c -2.07,0 -3.75,-1.672 -3.75,-3.75 0,-2.071 1.68,-3.75 3.75,-3.75"
         style="fill:#100f0d;fill-opacity:1;fill-rule:nonzero;stroke:none"
         transform="matrix(0.13333333,0,0,-0.13333333,0,666.66667)" />
      <path
         id="path159"
         d="m 5337.66,495.852 h 160.85 c 2.07,0 3.75,1.679 3.75,3.75 0,2.078 -1.68,3.75 -3.75,3.75 h -160.85 c -2.07,0 -3.75,-1.672 -3.75,-3.75 0,-2.071 1.68,-3.75 3.75,-3.75"
         style="fill:#100f0d;fill-opacity:1;fill-rule:nonzero;stroke:none"
         transform="matrix(0.13333333,0,0,-0.13333333,0,666.66667)" />
    </g>
  </g>
</svg>
